# xmcd
#
# Track frame offsets: 
#        150
#        16700
#        31292
#        44149
#        66750
#        80404
#        94903
#        109990
#        126063
#        145477
#        164261
#
# Disc length: 2495 seconds
#
# Revision: 2
# Processed by: cddbd v1.5.2PL0 Copyright (c) Steve Scherf et al.
# Submitted via: ExactAudioCopyFreeDBPlugin 1.0
#
DISCID=9409bd0b
DTITLE=San Pedro Slim - Barhoppin'
DYEAR=2008
DGENRE=Blues
TTITLE0=If I Had My Way
TTITLE1=You´re A Devil Now
TTITLE2=Door To Door
TTITLE3=When Will I Get My Time
TTITLE4=I´ve Got A Good Thing
TTITLE5=Barhoppin'
TTITLE6=Tables Do Turn
TTITLE7=Limited Means
TTITLE8=Blues At Last Call
TTITLE9=Time To Go Home
TTITLE10=Testify
EXTD=
EXTT0=
EXTT1=
EXTT2=
EXTT3=
EXTT4=
EXTT5=
EXTT6=
EXTT7=
EXTT8=
EXTT9=
EXTT10=
PLAYORDER=
